<svg xmlns="http://www.w3.org/2000/svg" width="30" height="30" viewBox="0 0 30 30">
    <g fill="none" fill-rule="evenodd">
        <circle cx="15" cy="15" r="14.435" stroke="" stroke-width="1.129"/>
        <path fill="" fill-rule="nonzero" d="M22.72 10.371a.298.298 0 0 0-.348.01c-.133.1-.35.181-.585.243.61-.684.623-1.14.616-1.246a.298.298 0 0 0-.472-.222c-.686.499-1.37.604-1.776.615a3.295 3.295 0 0 0-2.296-.925c-1.846 0-3.347 1.523-3.347 3.396 0 .16.011.321.033.48-3.199-.035-5.796-3.104-5.823-3.136a.298.298 0 0 0-.487.042c-.92 1.6-.305 3.003.259 3.807a1.97 1.97 0 0 1-.229-.14.297.297 0 0 0-.476.234c-.025 1.523.708 2.396 1.396 2.878a.298.298 0 0 0-.315.384c.476 1.56 1.645 2.089 2.388 2.269-1.528 1.19-3.778.807-3.802.803a.298.298 0 0 0-.234.53c1.614 1.233 3.543 1.506 4.937 1.506a9.507 9.507 0 0 0 1.874-.172c7.06-1.675 7.258-8.149 7.242-9.21 1.325-1.234 1.532-1.704 1.564-1.82a.297.297 0 0 0-.12-.326zm-1.948 1.8a.298.298 0 0 0-.096.24c.02.286.38 7.037-6.775 8.735-.032.006-2.876.6-5.342-.622 1.042-.03 2.536-.302 3.576-1.472a.298.298 0 0 0-.222-.497h-.003c-.015.01-1.58-.002-2.295-1.491.288.016.644-.002.927-.132a.299.299 0 0 0-.063-.563c-.08-.017-1.822-.407-2.066-2.309.264.116.602.21.937.16a.298.298 0 0 0 .15-.521c-.074-.065-1.71-1.52-.934-3.397.842.884 3.335 3.182 6.357 3.009a.299.299 0 0 0 .272-.37 2.875 2.875 0 0 1-.087-.699c0-1.544 1.235-2.8 2.752-2.8.742 0 1.438.297 1.96.836.055.056.13.089.209.09.316.005.835-.032 1.42-.268a4.8 4.8 0 0 1-.782.751.298.298 0 0 0 .208.532c.069-.006.423-.037.823-.123-.219.235-.517.535-.926.911z"/>
    </g>
</svg>
